<?xml version="1.0" encoding="utf-8"?>
<!-- Generator: Adobe Illustrator 26.5.0, SVG Export Plug-In . SVG Version: 6.00 Build 0)  -->
<svg version="1.1" id="Слой_1" xmlns="http://www.w3.org/2000/svg" xmlns:xlink="http://www.w3.org/1999/xlink" x="0px" y="0px"
	 viewBox="0 0 841.89 283.46" style="enable-background:new 0 0 841.89 283.46;" xml:space="preserve">
<style type="text/css">
	.st0{fill:#163E6C;}
</style>
<g>
	<polygon class="st0" points="112.52,158.43 125.53,125.03 153.99,125.03 147.48,141.73 182.59,141.73 199.89,97.35 199.89,97.35 
		199.89,97.35 76.98,97.35 90.43,125.03 107.71,125.03 85.26,138.27 66.61,186.11 66.61,186.11 165.37,186.11 176.16,158.43 	"/>
	<polygon class="st0" points="633.94,97.35 618.55,136.84 590.09,136.84 590.09,136.84 605.48,97.35 570.37,97.35 535.77,186.11 
		570.89,186.11 578.35,166.97 578.35,166.97 612.81,151.56 599.34,186.11 634.46,186.11 669.05,97.35 	"/>
	<path class="st0" d="M276.79,97.35l-47.02,39.93l15.56-39.93h-35.11l-34.59,88.76h35.11l46.88-39.57l-15.42,39.57h35.11
		l29.34-75.27l9.2,14.19h22.13l-50.48,61.08h40.43l50.48-61.08h11.43l-23.8,61.08h35.11l29.5-75.7l9.48,14.62h22.13l-50.48,61.08
		h40.43l24-29.05l18.65,17.36l-4.55,11.69h35.11l34.59-88.76H276.79z M505.95,146h-20.58l17.33-20.96h11.43L505.95,146z"/>
	<polygon class="st0" points="764.49,125.03 775.28,97.35 676.59,97.35 665.8,125.03 713.42,125.03 690.96,138.27 683.11,158.43 
		670.82,158.43 660.03,186.11 721.07,186.11 731.86,158.43 718.22,158.43 731.24,125.03 	"/>
</g>
</svg>
